<svg xmlns="http://www.w3.org/2000/svg" viewBox="0 0 460 140" role="img" aria-label="Ecodiffusore Brasil">
    <circle cx="70" cy="65" r="58" fill="#ffffff" fill-opacity="0.08"/>
    <g transform="translate(70,65)">
        <g fill="#8dc63f">
            <path d="M0 -34 C 7 -34 12 -22 7 -7 C 5 -1 0 0 0 0 C 0 0 -5 -1 -7 -7 C -12 -22 -7 -34 0 -34 Z"/>
            <path d="M0 -34 C 7 -34 12 -22 7 -7 C 5 -1 0 0 0 0 C 0 0 -5 -1 -7 -7 C -12 -22 -7 -34 0 -34 Z" transform="rotate(72)"/>
            <path d="M0 -34 C 7 -34 12 -22 7 -7 C 5 -1 0 0 0 0 C 0 0 -5 -1 -7 -7 C -12 -22 -7 -34 0 -34 Z" transform="rotate(144)"/>
            <path d="M0 -34 C 7 -34 12 -22 7 -7 C 5 -1 0 0 0 0 C 0 0 -5 -1 -7 -7 C -12 -22 -7 -34 0 -34 Z" transform="rotate(216)"/>
            <path d="M0 -34 C 7 -34 12 -22 7 -7 C 5 -1 0 0 0 0 C 0 0 -5 -1 -7 -7 C -12 -22 -7 -34 0 -34 Z" transform="rotate(288)"/>
        </g>
        <circle r="7" fill="#0d1b3d" stroke="#8dc63f" stroke-width="2.5"/>
    </g>

    <text x="150" y="66" textLength="270" lengthAdjust="spacingAndGlyphs" font-family="Poppins, Arial, sans-serif" font-weight="800" font-size="38" fill="#ffffff">
        <tspan fill="#8dc63f">ECO</tspan>DIFFUSORE
    </text>
    <rect x="150" y="80" width="86" height="26" rx="13" fill="#8dc63f"/>
    <text x="193" y="98" text-anchor="middle" font-family="Poppins, Arial, sans-serif" font-weight="700" font-size="15" letter-spacing="2" fill="#0d1b3d">BRASIL</text>
    <text x="150" y="124" font-family="Inter, Arial, sans-serif" font-weight="600" font-size="13" letter-spacing="0.5" fill="#b9c1d9">CAMINHÕES · TRATORES · ÔNIBUS</text>
</svg>
